<!--?xml version="1.0" encoding="utf-8"?-->
<!-- Svg Vector Icons : http://www.onlinewebfonts.com/icon -->

<svg version="1.1" xmlns="http://www.w3.org/2000/svg" xmlns:xlink="http://www.w3.org/1999/xlink" x="0px" y="0px" viewBox="0 0 256 256" enable-background="new 0 0 256 256" xml:space="preserve">
<metadata> Svg Vector Icons : http://www.onlinewebfonts.com/icon </metadata>
<g><g><g><path fill="#ff9f00" data-title="Layer 0" xs="0" d="M98.4,65.5c-0.6,0.2-9.5,6.7-19.8,14.5L59.9,94.2l-5.9,7c-4.2,5-5.7,7.1-5.3,7.4c0.3,0.2,1.8,0.4,3.3,0.4c1.4,0,3.7,0.2,4.9,0.3l2.3,0.3l-2.8,6c-2.7,5.8-2.8,5.9-4.1,5.6c-0.8-0.2-3.6-0.5-6.5-0.6c-4.2-0.2-5.8-0.1-9.2,0.8c-10.4,2.6-18.5,9.1-23.1,18.6c-2.4,5-3.4,9-3.4,14.6c0,13.6,7.2,25.4,19.3,31.3c5.3,2.6,8.6,3.3,15.4,3.3c5.2,0,6.6-0.2,9.9-1.3c9.7-3.2,17.7-10.6,21.7-20c0.7-1.6,1.4-3.9,1.5-4.9c0.2-1.1,0.4-2,0.5-2c0.1,0,0.9,0.5,1.7,1.2c2.9,2.2,7.4,4.6,11.2,5.9l3.8,1.4l41,0.1l41.1,0.1l1.8,3.2c2.8,4.8,9.2,11,13.9,13.5c6.4,3.3,10.1,4.2,16.9,4.2c3.3,0,6.9-0.3,8.4-0.7c12.8-3.2,23.2-13.4,26.6-25.9c1.4-5.4,1.4-13,0-18.2c-3.4-12.4-12.3-21.6-24.6-25.5c-3.1-1-4.6-1.1-10.4-1.1c-6,0-7.2,0.1-10.6,1.3c-11.2,3.8-20.1,12.7-23.4,23.6l-1,3.3l-2-2.8c-5-6.9-5.2-7.3-5.3-9c0-1,0.3-2.2,0.9-3c0.5-0.7,14.2-9.5,30.5-19.5c16.3-10,30-18.6,30.5-19c1.2-1.1,0.5-2.2-1.2-2.2c-0.6,0-8.7,1.1-18.1,2.4c-19.3,2.8-19.2,2.7-22.6,7.7c-1.1,1.6-3,3.6-4.5,4.6c-2.8,1.9-3.2,2-18.1,5.1c-10.7,2.3-12.5,2.2-15.1-0.6c-5.7-6.3-7.4-8-9.7-9.3c-2.9-1.8-7.3-3-10.6-3c-1.3,0-12.1,1.2-24.2,2.7c-12,1.4-22.2,2.7-22.6,2.6c-0.4,0,2.4-1.2,6.2-2.6c3.8-1.4,7.2-2.9,7.6-3.2c0.9-0.7,0.8-3.1-0.1-4c-1.2-1.2-2.5-1-11.1,2.3c-4.5,1.7-8.2,3-8.3,2.9c0,0,5.2-7.7,11.7-17c6.5-9.3,11.9-17,11.9-17.2C100.7,65.1,99.8,65.2,98.4,65.5z M77.2,88.9c-0.2,0.3-2.7,3.9-5.5,7.8c-2.8,4-5.3,7.3-5.6,7.4s-2,0-3.6-0.2l-2.9-0.4l2.8-3c1.5-1.6,5.5-5.1,8.8-7.5C77.5,88.2,78,87.9,77.2,88.9z M78.8,124.2c1.9,3.7,3.5,7.1,3.5,7.5c0,1.3-1.7,2.5-3.1,2.2c-1.1-0.3-1.8-1.4-4.6-7.4c-3.2-6.8-3.3-7.1-2.6-8.2c0.6-0.9,1.2-1.1,2.1-1C75.2,117.5,75.8,118.3,78.8,124.2z M84.9,118.1c0.4,0.5,2.1,3.6,3.7,7c2.3,4.6,2.9,6.4,2.7,7.3c-0.4,1.5-2.3,2.2-3.5,1.2c-1.1-0.9-6.9-12.7-6.9-14.1C80.9,117.3,83.4,116.4,84.9,118.1z M94.7,118.4c0.5,0.6,2.2,3.7,3.7,6.9c2.2,4.4,2.7,6.1,2.5,7c-0.4,1.5-2.3,2.2-3.5,1.3c-1.1-0.9-6.9-12.7-6.9-14.1C90.5,117.1,93.2,116.4,94.7,118.4z M49.3,129.8c0.1,0.1-2.2,5.6-5.3,12.2c-3,6.6-5.5,12.3-5.5,12.9c0,2.8,2.3,5.6,4.9,5.8c4.4,0.4,5.2-0.5,11.3-13.7c2.8-6.1,5.3-11.2,5.5-11.5c0.6-0.6,5.6,5,6.9,7.7c5.2,10.3,3.4,22.1-4.6,30.1c-3.8,3.8-9.3,6.5-14.6,7.3c-7.8,1.1-15.8-1.6-21.4-7.3c-5.1-5.2-7.7-11.2-7.7-18.1c0-11.7,8.2-22.2,19.6-25.1C41,129.3,48.7,129.2,49.3,129.8z M215.1,131.3c8.6,1.8,15.9,8.6,18.4,17.3c1.1,3.7,1,9.8-0.2,13.6c-3.5,11.2-15,18.6-26.5,16.8c-5-0.7-9.9-3.2-13.5-6.8c-2.5-2.5-5.2-6.8-6.1-9.6l-0.3-1.1h12.7c11.6,0,12.8-0.1,14.2-0.9c2.9-1.7,3.9-6.1,2.1-9.1c-1.9-3.1-2.7-3.3-16.5-3.4l-12.4-0.1l0.7-1.9c1.1-2.9,3.9-6.9,6.7-9.4C200,131.8,207.8,129.8,215.1,131.3z"/></g></g></g>
</svg>